<svg width="118" height="75" viewBox="0 0 118 75" fill="none" xmlns="http://www.w3.org/2000/svg">
<path d="M51.5 15.6666L47.5 20.5L44 15.6666V37.3333H51.5V26.5V15.6666Z" fill="#012522"/>
<path d="M58.5 18.168C58.5 24.059 66.609 32 72.5 32L72.4995 39.5L72.4994 37.3333C60.8897 37.1867 53.4037 29.7953 53.3305 18.168V10.5012L63 13.5L72.2242 10.5012L72.5 18.168L58.5 18.168Z" fill="#012522"/>
<circle cx="47.6001" cy="14" r="3" fill="#19D7C4"/>
<path d="M12.882 69V52.008H16.314V69H12.882ZM19.4333 69V56.352H22.5773L22.7453 57.816C23.0973 57.384 23.4973 57.048 23.9453 56.808C24.4093 56.552 24.8733 56.376 25.3373 56.28C25.8173 56.184 26.2493 56.136 26.6333 56.136C27.8493 56.136 28.7933 56.4 29.4653 56.928C30.1533 57.456 30.6413 58.168 30.9293 59.064C31.2333 59.944 31.3853 60.928 31.3853 62.016V69H28.0253V62.448C28.0253 62.064 27.9933 61.68 27.9293 61.296C27.8653 60.912 27.7453 60.56 27.5693 60.24C27.4093 59.92 27.1773 59.664 26.8733 59.472C26.5693 59.28 26.1693 59.184 25.6733 59.184C25.0333 59.184 24.4973 59.344 24.0653 59.664C23.6333 59.984 23.3133 60.416 23.1053 60.96C22.8973 61.504 22.7933 62.104 22.7933 62.76V69H19.4333ZM38.9085 69.168C38.3165 69.168 37.7085 69.104 37.0845 68.976C36.4605 68.848 35.8845 68.632 35.3565 68.328C34.8285 68.008 34.3805 67.584 34.0125 67.056C33.6445 66.512 33.4045 65.84 33.2925 65.04H36.7005C36.7965 65.328 36.9645 65.576 37.2045 65.784C37.4605 65.992 37.7485 66.144 38.0685 66.24C38.4045 66.336 38.7405 66.384 39.0765 66.384C39.3005 66.384 39.5245 66.368 39.7485 66.336C39.9725 66.304 40.1805 66.24 40.3725 66.144C40.5645 66.048 40.7165 65.928 40.8285 65.784C40.9405 65.624 40.9965 65.424 40.9965 65.184C40.9965 64.928 40.9165 64.728 40.7565 64.584C40.5965 64.44 40.3725 64.328 40.0845 64.248C39.7965 64.152 39.4685 64.064 39.1005 63.984C38.4445 63.84 37.7405 63.68 36.9885 63.504C36.2365 63.328 35.5885 63.072 35.0445 62.736C34.8205 62.576 34.6205 62.4 34.4445 62.208C34.2685 62.016 34.1245 61.8 34.0125 61.56C33.9005 61.32 33.8125 61.072 33.7485 60.816C33.6845 60.544 33.6525 60.256 33.6525 59.952C33.6525 59.264 33.7965 58.68 34.0845 58.2C34.3885 57.704 34.7885 57.304 35.2845 57C35.7805 56.696 36.3325 56.48 36.9405 56.352C37.5485 56.208 38.1725 56.136 38.8125 56.136C39.6765 56.136 40.4765 56.28 41.2125 56.568C41.9485 56.84 42.5565 57.272 43.0365 57.864C43.5165 58.44 43.8125 59.192 43.9245 60.12H40.7085C40.6445 59.768 40.4285 59.488 40.0605 59.28C39.6925 59.056 39.2365 58.944 38.6925 58.944C38.5005 58.944 38.2925 58.96 38.0685 58.992C37.8605 59.024 37.6685 59.08 37.4925 59.16C37.3165 59.24 37.1725 59.352 37.0605 59.496C36.9485 59.624 36.8925 59.8 36.8925 60.024C36.8925 60.2 36.9405 60.36 37.0365 60.504C37.1485 60.648 37.3005 60.768 37.4925 60.864C37.7005 60.96 37.9485 61.048 38.2365 61.128C38.7805 61.256 39.3245 61.376 39.8685 61.488C40.4285 61.584 40.9245 61.688 41.3565 61.8C41.8845 61.912 42.3645 62.096 42.7965 62.352C43.2445 62.608 43.6045 62.96 43.8765 63.408C44.1645 63.84 44.3085 64.408 44.3085 65.112C44.3085 65.912 44.1485 66.576 43.8285 67.104C43.5085 67.616 43.0765 68.024 42.5325 68.328C42.0045 68.632 41.4205 68.848 40.7805 68.976C40.1565 69.104 39.5325 69.168 38.9085 69.168ZM46.2692 69V56.352H49.6292V69H46.2692ZM47.9492 55.08C47.3252 55.08 46.8212 54.896 46.4372 54.528C46.0532 54.144 45.8612 53.656 45.8612 53.064C45.8612 52.44 46.0612 51.936 46.4612 51.552C46.8612 51.168 47.3652 50.976 47.9732 50.976C48.5332 50.976 49.0132 51.168 49.4132 51.552C49.8292 51.92 50.0372 52.416 50.0372 53.04C50.0372 53.648 49.8372 54.144 49.4372 54.528C49.0532 54.896 48.5572 55.08 47.9492 55.08ZM58.3887 74.856C57.3967 74.856 56.4847 74.696 55.6527 74.376C54.8207 74.072 54.1167 73.584 53.5407 72.912C52.9647 72.24 52.5727 71.376 52.3647 70.32H55.7967C55.9087 70.64 56.0847 70.904 56.3247 71.112C56.5807 71.336 56.8847 71.504 57.2367 71.616C57.6047 71.728 57.9887 71.784 58.3887 71.784C59.1407 71.784 59.7247 71.624 60.1407 71.304C60.5567 70.984 60.8447 70.56 61.0047 70.032C61.1647 69.52 61.2447 68.952 61.2447 68.328V67.44C60.9567 67.904 60.5967 68.256 60.1647 68.496C59.7327 68.736 59.2767 68.904 58.7967 69C58.3327 69.112 57.8847 69.168 57.4527 69.168C56.1247 69.168 55.0447 68.872 54.2127 68.28C53.3807 67.688 52.7727 66.912 52.3887 65.952C52.0047 64.976 51.8127 63.928 51.8127 62.808C51.8127 61.576 52.0287 60.456 52.4607 59.448C52.8927 58.44 53.5407 57.64 54.4047 57.048C55.2687 56.456 56.3487 56.16 57.6447 56.16C58.4287 56.16 59.1247 56.288 59.7327 56.544C60.3407 56.784 60.8607 57.144 61.2927 57.624L61.5807 56.352H64.6527V67.392C64.6527 68.928 64.4527 70.248 64.0527 71.352C63.6527 72.472 62.9887 73.336 62.0607 73.944C61.1487 74.552 59.9247 74.856 58.3887 74.856ZM58.1967 66.144C58.9007 66.144 59.4767 65.984 59.9247 65.664C60.3887 65.344 60.7327 64.92 60.9567 64.392C61.1807 63.848 61.2927 63.264 61.2927 62.64C61.2927 61.984 61.1807 61.4 60.9567 60.888C60.7327 60.36 60.3967 59.944 59.9487 59.64C59.5007 59.32 58.9247 59.16 58.2207 59.16C57.4527 59.16 56.8447 59.344 56.3967 59.712C55.9487 60.064 55.6287 60.512 55.4367 61.056C55.2607 61.584 55.1727 62.144 55.1727 62.736C55.1727 63.344 55.2687 63.912 55.4607 64.44C55.6527 64.952 55.9727 65.368 56.4207 65.688C56.8687 65.992 57.4607 66.144 58.1967 66.144ZM67.2927 69V56.352H70.4367L70.6047 57.816C70.9567 57.384 71.3567 57.048 71.8047 56.808C72.2687 56.552 72.7327 56.376 73.1967 56.28C73.6767 56.184 74.1087 56.136 74.4927 56.136C75.7087 56.136 76.6527 56.4 77.3247 56.928C78.0127 57.456 78.5007 58.168 78.7887 59.064C79.0927 59.944 79.2447 60.928 79.2447 62.016V69H75.8847V62.448C75.8847 62.064 75.8527 61.68 75.7887 61.296C75.7247 60.912 75.6047 60.56 75.4287 60.24C75.2687 59.92 75.0367 59.664 74.7327 59.472C74.4287 59.28 74.0287 59.184 73.5327 59.184C72.8927 59.184 72.3567 59.344 71.9247 59.664C71.4927 59.984 71.1727 60.416 70.9647 60.96C70.7567 61.504 70.6527 62.104 70.6527 62.76V69H67.2927ZM81.8239 69V56.352H85.1839V69H81.8239ZM83.5039 55.08C82.8799 55.08 82.3759 54.896 81.9919 54.528C81.6079 54.144 81.4159 53.656 81.4159 53.064C81.4159 52.44 81.6159 51.936 82.0159 51.552C82.4159 51.168 82.9199 50.976 83.5279 50.976C84.0879 50.976 84.5679 51.168 84.9679 51.552C85.3839 51.92 85.5919 52.416 85.5919 53.04C85.5919 53.648 85.3919 54.144 84.9919 54.528C84.6079 54.896 84.1119 55.08 83.5039 55.08ZM91.8553 69.168C91.2793 69.168 90.7193 69.096 90.1753 68.952C89.6473 68.792 89.1753 68.552 88.7593 68.232C88.3433 67.912 88.0153 67.512 87.7753 67.032C87.5353 66.552 87.4153 65.992 87.4153 65.352C87.4153 64.488 87.5913 63.8 87.9433 63.288C88.2953 62.76 88.7673 62.36 89.3593 62.088C89.9513 61.816 90.6313 61.632 91.3993 61.536C92.1833 61.44 92.9913 61.392 93.8233 61.392H95.6473C95.6473 60.928 95.5593 60.52 95.3833 60.168C95.2233 59.8 94.9753 59.52 94.6393 59.328C94.3033 59.12 93.8713 59.016 93.3433 59.016C93.0073 59.016 92.6793 59.064 92.3593 59.16C92.0553 59.24 91.7993 59.36 91.5913 59.52C91.3833 59.68 91.2473 59.888 91.1833 60.144H87.7753C87.8713 59.44 88.0953 58.84 88.4473 58.344C88.7993 57.832 89.2393 57.416 89.7673 57.096C90.2953 56.776 90.8713 56.544 91.4953 56.4C92.1353 56.24 92.7913 56.16 93.4633 56.16C95.3033 56.16 96.6633 56.688 97.5433 57.744C98.4233 58.784 98.8633 60.264 98.8633 62.184V69H95.8393L95.7913 67.368C95.3913 67.928 94.9353 68.336 94.4233 68.592C93.9273 68.848 93.4473 69.008 92.9833 69.072C92.5193 69.136 92.1433 69.168 91.8553 69.168ZM92.6233 66.504C93.1833 66.504 93.6953 66.392 94.1593 66.168C94.6233 65.944 94.9913 65.64 95.2633 65.256C95.5353 64.872 95.6713 64.44 95.6713 63.96V63.648H93.3673C93.0313 63.648 92.7033 63.664 92.3833 63.696C92.0793 63.728 91.7993 63.792 91.5433 63.888C91.3033 63.968 91.1113 64.104 90.9673 64.296C90.8233 64.488 90.7513 64.744 90.7513 65.064C90.7513 65.384 90.8313 65.656 90.9913 65.88C91.1673 66.088 91.3993 66.248 91.6873 66.36C91.9753 66.456 92.2873 66.504 92.6233 66.504ZM103.552 69.312C102.976 69.312 102.488 69.136 102.088 68.784C101.688 68.432 101.488 67.928 101.488 67.272C101.488 66.6 101.688 66.072 102.088 65.688C102.504 65.304 102.992 65.112 103.552 65.112C104.112 65.112 104.592 65.304 104.992 65.688C105.392 66.056 105.592 66.576 105.592 67.248C105.592 67.92 105.392 68.432 104.992 68.784C104.592 69.136 104.112 69.312 103.552 69.312Z" fill="#012522"/>
</svg>
